<mxfile>
    <diagram id="hrsUv3LJYTpGySpk9pGb" name="Page-1">
        <mxGraphModel dx="1516" dy="613" grid="1" gridSize="10" guides="1" tooltips="1" connect="1" arrows="1" fold="1" page="1" pageScale="1" pageWidth="850" pageHeight="1100" math="0" shadow="0">
            <root>
                <mxCell id="0"/>
                <mxCell id="1" parent="0"/>
                <mxCell id="2" value="IPP&#10;Server" style="shape=agent;offsetSize=8;strokeWidth=2;" vertex="1" parent="1">
                    <mxGeometry x="360" y="260" width="140" height="60" as="geometry"/>
                </mxCell>
                <mxCell id="3" value="Connector" style="shape=agent;offsetSize=8;strokeWidth=2;" vertex="1" parent="1">
                    <mxGeometry x="-20" y="440" width="240" height="60" as="geometry"/>
                </mxCell>
                <mxCell id="4" value="Card Terminal" style="shape=agent;offsetSize=8;strokeWidth=2;" vertex="1" parent="1">
                    <mxGeometry x="-20" y="580" width="100" height="60" as="geometry"/>
                </mxCell>
                <mxCell id="7" style="edgeStyle=orthogonalEdgeStyle;rounded=0;orthogonalLoop=1;jettySize=auto;html=1;" edge="1" parent="1" source="5" target="6">
                    <mxGeometry relative="1" as="geometry"/>
                </mxCell>
                <mxCell id="5" value="PVS or KIS" style="shape=agent;offsetSize=8;strokeWidth=2;" vertex="1" parent="1">
                    <mxGeometry x="400" y="440" width="100" height="60" as="geometry"/>
                </mxCell>
                <mxCell id="8" style="edgeStyle=orthogonalEdgeStyle;rounded=0;orthogonalLoop=1;jettySize=auto;html=1;" edge="1" parent="1" source="6" target="2">
                    <mxGeometry relative="1" as="geometry">
                        <Array as="points">
                            <mxPoint x="450" y="330"/>
                            <mxPoint x="450" y="330"/>
                        </Array>
                    </mxGeometry>
                </mxCell>
                <mxCell id="6" value="Muster 16&lt;br&gt;PostScript" style="rounded=1;whiteSpace=wrap;html=1;arcSize=60;strokeWidth=2;" vertex="1" parent="1">
                    <mxGeometry x="405" y="360" width="90" height="40" as="geometry"/>
                </mxCell>
                <mxCell id="19" style="edgeStyle=orthogonalEdgeStyle;rounded=0;orthogonalLoop=1;jettySize=auto;html=1;" edge="1" parent="1" source="9" target="18">
                    <mxGeometry relative="1" as="geometry">
                        <Array as="points">
                            <mxPoint x="365" y="660"/>
                            <mxPoint x="365" y="660"/>
                        </Array>
                    </mxGeometry>
                </mxCell>
                <mxCell id="9" value="Browser" style="shape=agent;offsetSize=8;strokeWidth=2;" vertex="1" parent="1">
                    <mxGeometry x="130" y="580" width="270" height="60" as="geometry"/>
                </mxCell>
                <mxCell id="11" value="Push Messaging Service" style="shape=agent;offsetSize=8;strokeWidth=2;" vertex="1" parent="1">
                    <mxGeometry x="280" y="130" width="220" height="60" as="geometry"/>
                </mxCell>
                <mxCell id="12" value="" style="shape=useedge;vertical=true;endArrow=none;useSignPosition=left;useSignDirection=none;exitX=0.5;exitY=0;exitDx=0;exitDy=0;dx=21;dy=40;" edge="1" parent="1" source="2" target="11">
                    <mxGeometry height="160" relative="1" as="geometry">
                        <mxPoint x="420" y="380" as="sourcePoint"/>
                        <mxPoint x="420" y="220" as="targetPoint"/>
                    </mxGeometry>
                </mxCell>
                <mxCell id="13" value="" style="shape=useedge;vertical=true;endArrow=none;useSignPosition=left;useSignDirection=south;entryX=0.193;entryY=1.008;entryDx=0;entryDy=0;entryPerimeter=0;exitX=0.725;exitY=0.008;exitDx=0;exitDy=0;exitPerimeter=0;" edge="1" parent="1" source="9" target="11">
                    <mxGeometry height="160" relative="1" as="geometry">
                        <mxPoint x="340" y="390" as="sourcePoint"/>
                        <mxPoint x="340" y="230" as="targetPoint"/>
                    </mxGeometry>
                </mxCell>
                <mxCell id="14" value="" style="shape=useedge;vertical=true;endArrow=none;useSignPosition=left;useSignDirection=south;entryX=0.75;entryY=1;entryDx=0;entryDy=0;exitX=0.167;exitY=0.008;exitDx=0;exitDy=0;exitPerimeter=0;" edge="1" parent="1" source="9" target="3">
                    <mxGeometry height="160" relative="1" as="geometry">
                        <mxPoint x="120" y="640" as="sourcePoint"/>
                        <mxPoint x="120" y="480" as="targetPoint"/>
                    </mxGeometry>
                </mxCell>
                <mxCell id="15" value="" style="shape=useedge;vertical=true;endArrow=none;useSignPosition=left;useSignDirection=south;" edge="1" parent="1" target="3">
                    <mxGeometry height="160" relative="1" as="geometry">
                        <mxPoint x="30" y="580" as="sourcePoint"/>
                        <mxPoint x="40" y="500" as="targetPoint"/>
                    </mxGeometry>
                </mxCell>
                <mxCell id="16" value="&#10;&#10;&#10;&#10;&#10;&#10;Doctor" style="shape=actor;horizontalLabelPosition=right;align=left;labelPosition=right;strokeWidth=2;" vertex="1" parent="1">
                    <mxGeometry x="250" y="730" width="25" height="50" as="geometry"/>
                </mxCell>
                <mxCell id="17" value="" style="shape=useedge;vertical=true;endArrow=none;useSignPosition=left;useSignDirection=south;entryX=0.5;entryY=1;entryDx=0;entryDy=0;exitX=0.5;exitY=0;exitDx=0;exitDy=0;" edge="1" parent="1" source="16" target="9">
                    <mxGeometry height="160" relative="1" as="geometry">
                        <mxPoint x="270" y="810" as="sourcePoint"/>
                        <mxPoint x="270" y="650" as="targetPoint"/>
                    </mxGeometry>
                </mxCell>
                <mxCell id="23" style="edgeStyle=orthogonalEdgeStyle;rounded=0;orthogonalLoop=1;jettySize=auto;html=1;" edge="1" parent="1" source="18" target="22">
                    <mxGeometry relative="1" as="geometry"/>
                </mxCell>
                <mxCell id="18" value="QR Code" style="rounded=1;whiteSpace=wrap;html=1;arcSize=60;strokeWidth=2;" vertex="1" parent="1">
                    <mxGeometry x="320" y="735" width="90" height="40" as="geometry"/>
                </mxCell>
                <mxCell id="20" value="&#10;&#10;&#10;&#10;&#10;&#10;Patient" style="shape=actor;horizontalLabelPosition=right;align=left;labelPosition=right;strokeWidth=2;" vertex="1" parent="1">
                    <mxGeometry x="351.5" y="959" width="25" height="50" as="geometry"/>
                </mxCell>
                <mxCell id="22" value="Smartphone&#10;(E-Rept App)" style="shape=agent;offsetSize=8;strokeWidth=2;" vertex="1" parent="1">
                    <mxGeometry x="315" y="840" width="100" height="60" as="geometry"/>
                </mxCell>
                <mxCell id="24" value="" style="shape=useedge;vertical=true;endArrow=none;useSignPosition=left;useSignDirection=south;entryX=0.5;entryY=1;entryDx=0;entryDy=0;exitX=0.5;exitY=0;exitDx=0;exitDy=0;" edge="1" parent="1" source="20" target="22">
                    <mxGeometry height="160" relative="1" as="geometry">
                        <mxPoint x="310" y="1080" as="sourcePoint"/>
                        <mxPoint x="310" y="920" as="targetPoint"/>
                    </mxGeometry>
                </mxCell>
                <mxCell id="25" value="E-Rezept Fachdienst" style="shape=agent;offsetSize=8;strokeWidth=2;" vertex="1" parent="1">
                    <mxGeometry x="-30" y="250" width="250" height="60" as="geometry"/>
                </mxCell>
                <mxCell id="26" value="E-Rezept IdP" style="shape=agent;offsetSize=8;strokeWidth=2;" vertex="1" parent="1">
                    <mxGeometry x="-140" y="330" width="250" height="60" as="geometry"/>
                </mxCell>
            </root>
        </mxGraphModel>
    </diagram>
</mxfile>